<svg xmlns="http://www.w3.org/2000/svg" viewBox="0 0 128 128" role="img" aria-label="Generar reporte">
  <defs>
    <linearGradient id="g" x1="20" y1="10" x2="110" y2="120" gradientUnits="userSpaceOnUse">
      <stop stop-color="#ffdca9"/>
      <stop offset="1" stop-color="#ff9a50"/>
    </linearGradient>
    <linearGradient id="m" x1="32" y1="26" x2="96" y2="104" gradientUnits="userSpaceOnUse">
      <stop stop-color="#18d8c3"/>
      <stop offset="1" stop-color="#008f82"/>
    </linearGradient>
  </defs>
  <rect x="28" y="22" width="72" height="88" rx="18" fill="url(#g)" opacity=".96"/>
  <rect x="38" y="35" width="52" height="62" rx="10" fill="#fff" opacity=".94"/>
  <rect x="47" y="45" width="34" height="7" rx="4" fill="#d8e3ef"/>
  <rect x="47" y="61" width="34" height="7" rx="4" fill="#d8e3ef"/>
  <rect x="47" y="77" width="22" height="7" rx="4" fill="#d8e3ef"/>
  <path d="M64 28c8 0 14 5 14 12H50c0-7 6-12 14-12z" fill="#eef5fb"/>
  <path d="M64 92s22-20 22-38c0-13-10-23-22-23S42 41 42 54c0 18 22 38 22 38z" fill="url(#m)"/>
  <circle cx="64" cy="54" r="8" fill="#fff"/>
</svg>
